<?xml version="1.0" standalone="no"?>
<!DOCTYPE svg PUBLIC "-//W3C//DTD SVG 20010904//EN"
 "http://www.w3.org/TR/2001/REC-SVG-20010904/DTD/svg10.dtd">
<svg version="1.0" xmlns="http://www.w3.org/2000/svg"
 width="37.000000pt" height="38.000000pt" viewBox="0 0 37.000000 38.000000"
 preserveAspectRatio="xMidYMid meet">

<g transform="translate(0.000000,38.000000) scale(0.100000,-0.100000)"
fill="#000000" stroke="none">
<path d="M144 351 c-77 -19 -131 -99 -120 -178 6 -47 12 -60 21 -52 2 3 1 19
-4 36 -14 47 3 102 43 141 30 31 43 36 93 40 49 3 64 0 93 -20 59 -39 88 -126
60 -179 -7 -12 -7 -19 -1 -19 6 0 15 17 20 37 20 73 -19 150 -93 184 -44 20
-63 21 -112 10z"/>
<path d="M133 305 c-57 -24 -87 -96 -63 -150 6 -14 8 -8 4 20 -7 54 26 105 82
124 36 12 44 12 77 -4 47 -22 71 -65 64 -117 -3 -21 -1 -36 4 -32 18 11 10 90
-12 118 -42 53 -96 67 -156 41z"/>
<path d="M139 267 c-32 -24 -51 -88 -31 -101 5 -3 7 7 4 22 -6 40 30 80 76 85
l37 4 -35 1 c-19 1 -42 -4 -51 -11z"/>
<path d="M246 248 c10 -14 21 -24 23 -22 3 3 -6 15 -18 27 l-24 22 19 -27z"/>
<path d="M162 218 c-16 -16 -15 -23 4 -42 21 -22 56 -3 52 27 -3 25 -37 34
-56 15z"/>
<path d="M271 194 c0 -11 3 -14 6 -6 3 7 2 16 -1 19 -3 4 -6 -2 -5 -13z"/>
<path d="M172 129 c2 -6 8 -10 13 -10 5 0 11 4 13 10 2 6 -4 11 -13 11 -9 0
-15 -5 -13 -11z"/>
<path d="M172 79 c2 -6 8 -10 13 -10 5 0 11 4 13 10 2 6 -4 11 -13 11 -9 0
-15 -5 -13 -11z"/>
<path d="M170 24 c0 -9 5 -14 12 -12 18 6 21 28 4 28 -9 0 -16 -7 -16 -16z"/>
</g>
</svg>
